<?xml version="1.0" encoding="utf-8"?>
<!-- Generator: Adobe Illustrator 27.5.0, SVG Export Plug-In . SVG Version: 6.00 Build 0)  -->
<svg version="1.1" id="Layer_1" xmlns="http://www.w3.org/2000/svg" xmlns:xlink="http://www.w3.org/1999/xlink" x="0px" y="0px"
	 viewBox="0 0 2500 453" style="enable-background:new 0 0 2500 453;" xml:space="preserve">
<style type="text/css">
	.st0{fill:#FFFFFF;}
</style>
<path class="st0" d="M214.1,1v394.5l89.3,28.3V93c0-15.6,7-25.9,18.1-22.4c14.6,4,17.4,18.4,17.4,33.8v132.1
	c55.6,26.9,99.4,0,99.4-71c0-72.6-25.7-104.9-101.2-130.9C307.3,24.7,252.1,8,214.1,1"/>
<path class="st0" d="M320.4,366.1L463.9,315c16.2-6,18.7-14.2,5.6-18.5c-13.3-4.4-37.2-3.1-53.6,2.8L320.4,333v-53.7l5.5-1.8
	c0,0,27.6-9.8,66.5-14c38.8-4.3,86.4,0.6,123.8,14.7c42.1,13.4,46.9,32.9,36.2,46.5c-10.8,13.4-37,23.2-37,23.2l-194.9,70
	 M50.4,360.7c-43.2-12-50.4-37.5-30.7-52.1C37.9,295.1,68.8,285,68.8,285l128-45.6v51.9l-92,33c-16.3,5.8-18.7,14-5.6,18.3
	c13.4,4.5,37.1,3.3,53.4-2.8l44.2-16v46.4c-2.9,0.5-6,1-8.9,1.5C143.8,379.1,96.8,376,50.4,360.7 M529.6,396.9c0,1.3-0.3,2.2-1,2.6
	c-0.8,0.5-1.8,0.8-3.1,0.8h-6.4v-6.5h6.8c1,0,1.7,0.2,2.3,0.4C529.1,394.6,529.6,395.5,529.6,396.9 M534.2,411.9
	c-0.3-0.1-0.5-0.4-0.7-1c-0.1-0.6-0.2-1.2-0.2-1.8l-0.1-3c0-1.4-0.3-2.4-0.9-3.1c-0.3-0.5-0.8-0.8-1.3-1.2c0.6-0.6,1.2-1.2,1.7-1.8
	c0.6-0.9,0.9-2.2,0.9-3.5c0-2.7-1.2-4.7-3.5-5.7c-1.1-0.5-2.6-0.8-4.4-0.8H515v23.3h4.1v-9.5h6.3c1.2,0,2,0.1,2.5,0.3
	c0.8,0.5,1.2,1.2,1.3,2.5l0.2,3.6c0.1,0.9,0.1,1.5,0.2,1.9l0.3,0.8l0.1,0.3h4.5v-1.3 M506.5,402.3c0-4.8,1.8-9.1,5-12.4
	c3.3-3.3,7.8-5.1,12.4-5.1c4.6,0,9,1.8,12.2,5.1c3.3,3.2,5.1,7.6,5.1,12.4c0,9.5-7.7,17.3-17.3,17.3c-4.6,0-9.1-1.8-12.4-5
	C508.3,411.3,506.5,406.9,506.5,402.3 M523.9,423.1c5.6,0,10.8-2.2,14.7-6.1c3.9-4,6.1-9.2,6.1-14.8c0-5.6-2.2-10.9-6.1-14.8
	c-3.9-3.9-9.2-6.2-14.7-6.1c-11.6,0-21,9.4-21,20.9c0,5.6,2.2,10.8,6.1,14.8C513,420.9,518.4,423.1,523.9,423.1 M848.2,104.5
	l-107.9,0c-0.4,0-0.8,0.3-0.8,0.8v252.3c0,0.4,0.4,0.8,0.8,0.8H784l0.8-0.8l0-224.9l0.3-0.4l50.1-0.1c18.2,0,28.2,18.4,28.2,51.7
	c0,33.3-10,51.7-28.2,51.7l-30.1,0c-0.5,0-0.8,0.3-0.8,0.8v26.2c0,0.5,0.3,0.8,0.8,0.8h43.1c15.2,0,30.1-7.1,40.9-19.2
	c12.7-14.4,19.5-35.2,19.5-60.1C908.5,135.8,884.9,104.5,848.2,104.5 M980,104.4h-43.7c-0.5,0-0.9,0.4-0.9,0.8v252.3
	c0,0.4,0.4,0.8,0.9,0.8H980l0.8-0.8V105.2L980,104.4z M1170.8,165.9c0-0.4-0.4-0.8-0.8-0.8h-77.9c-69.9,0-78.8,51.3-78.8,96.3
	l0.1,39c0,33.5,20.9,57.9,49.5,57.9h42.5l0.8-0.8v-26.2c0-0.4-0.4-0.8-0.8-0.8l-30.4,0.1c-7-0.1-16.4-3.1-16.4-27.2v-42.1
	c0-28,2.6-45.8,8.4-56c6.3-11.2,16.2-12.7,25.1-12.7h33.2l0.3,0.4l0,164.5c0,0.4,0.3,0.8,0.8,0.8h43.7c0.4,0,0.8-0.4,0.8-0.8
	 M1485.5,210l-21.5-1.6c-16.2-1.4-28.2-10.3-28.2-36.8c0-30.9,13.9-39.4,32.4-39.4h59.6l0.8-0.8v-26.2l-0.8-0.8h-1.2l-64.6,0
	c-40.7,0-69.6,23.9-69.6,71.5v2.1c0,37.6,23.1,64.7,57.6,67.4l21.4,1.6c16.4,1.2,26.5,15.9,26.5,38.1v6.2c0,13.9-3.5,39.3-33.2,39.3
	h-62c-0.4,0-0.8,0.4-0.8,0.8v26.1l0.8,0.8h76.9c23.7,0,63.4-9.6,63.4-74.1c0-23.4-5.3-41.8-16.1-55.1
	C1517.8,217.7,1504.2,211.5,1485.5,210 M1843.8,165.9c0-0.4-0.4-0.8-0.8-0.8H1765c-69.7,0-78.7,51.3-78.7,96.3l0.1,39
	c0,33.5,20.8,57.9,49.7,57.9h42.4l0.8-0.8v-26.2c0-0.4-0.4-0.8-0.8-0.8l-30.4,0.1c-7-0.1-16.3-3.1-16.3-27.2v-42.1
	c0-28,2.6-45.8,8.3-56c6.3-11.2,16.3-12.7,25-12.7h33.4l0.3,0.4l-0.1,164.5c0,0.4,0.4,0.8,0.8,0.8h43.7c0.4,0,0.7-0.4,0.7-0.8
	 M1668.1,165.1h-47.5l-0.2-0.3V133c0-0.4-0.3-0.8-0.8-0.8h-43.7c-0.4,0-0.8,0.4-0.8,0.8v167.4c0,33.5,20.9,57.9,49.7,57.9h31.3
	c0.4,0,0.8-0.4,0.8-0.8v-26.1c0-0.4-0.3-0.8-0.8-0.8h-19.2c-4.9-0.1-16.5-0.3-16.5-25V192.8l0.3-0.3c14.5,0.1,47.5,0,47.5,0l0.8-0.7
	v-26C1668.8,165.4,1668.5,165.1,1668.1,165.1 M1973.3,165.1h-47.2l-0.3-0.3V133l-0.7-0.8h-43.8c-0.4,0-0.8,0.3-0.8,0.8v167.4
	c0,33.5,20.9,57.9,49.6,57.9h31.3c0.4,0,0.8-0.3,0.8-0.8c0,0,0,0,0,0v-26.1c0-0.4-0.3-0.8-0.8-0.8h-19.2c-4.9-0.1-16.4-0.3-16.4-25
	V192.8l0.3-0.3c14.4,0.1,47.2,0,47.2,0l0.8-0.7v-26C1974.1,165.4,1973.7,165.1,1973.3,165.1 M2045.6,165.1h-43.7
	c-0.4,0-0.8,0.3-0.8,0.8v191.7l0.8,0.8h43.7c0.4,0,0.8-0.3,0.8-0.8c0,0,0,0,0,0V165.9C2046.4,165.4,2046,165.1,2045.6,165.1
	C2045.6,165.1,2045.6,165.1,2045.6,165.1 M2045.6,104.4h-43.7l-0.8,0.8v36.6c0,0.4,0.4,0.8,0.8,0.8h43.7c0.5,0,0.8-0.3,0.8-0.8
	v-36.6C2046.4,104.8,2046,104.4,2045.6,104.4 M2348,165.1h-78c-0.4,0-0.8,0.4-0.8,0.8l0,191.7l0.7,0.8h43.8l0.7-0.8l-0.1-164.5
	l0.3-0.3l33.3,0c9,0,18.9,1.5,25.2,11.9c5.8,9.4,8.4,25.9,8.4,51.9c0,1.1,0,101.2,0,101.2c0,0.4,0.3,0.8,0.8,0.8h43.6
	c0.5,0,0.8-0.4,0.8-0.8v-96.1C2426.6,216.4,2417.6,165.1,2348,165.1 M2185.5,317.9c-6.9,11.3-17.8,12.8-27.7,12.8
	c-9.8,0-20.8-1.5-27.7-12.8c-6.3-10.2-9.2-28.1-9.2-56.2v-0.2c0-33.2,4.1-52.1,13.2-61.1c5.5-5.5,12.6-7.7,23.7-7.7
	c11.2,0,18.3,2.2,23.7,7.7c9.1,9,13.2,28,13.2,61.3C2194.7,289.9,2191.8,307.7,2185.5,317.9 M2157.8,165.1
	c-73,0-82.3,51.5-82.3,96.6c0,45.1,9.3,96.8,82.3,96.8c73,0,82.3-51.7,82.3-96.8C2240.2,216.6,2230.9,165.1,2157.8,165.1
	 M1195.5,165.1l-0.5,0.8l64.8,189.9c0.1,0.4,0.1,1.1,0,1.5l-36.5,94c-0.2,0.4,0,0.8,0.5,0.8h38c0.5,0,0.9-0.3,1.1-0.8l113.8-285.4
	c0.2-0.5,0-0.8-0.5-0.8h-41.5c-0.5,0-0.9,0.3-1.1,0.8l-48.2,124.8h-0.5l-42.5-124.8c-0.1-0.5-0.6-0.8-1-0.8 M2482.9,332.1
	c0,1.3-0.4,2.1-1,2.6c-0.7,0.5-1.8,0.8-3,0.8h-6.4v-6.5h6.8c1,0,1.7,0.1,2.2,0.4C2482.3,329.8,2482.9,330.7,2482.9,332.1
	 M2487.5,347.1c-0.3-0.1-0.5-0.4-0.7-1c-0.1-0.6-0.1-1.2-0.1-1.8l-0.1-2.9c-0.1-1.4-0.3-2.5-0.9-3.1c-0.3-0.5-0.8-0.9-1.3-1.2
	c0.6-0.6,1.2-1.1,1.7-1.8c0.6-0.9,0.9-2.1,0.9-3.5c0-2.8-1.2-4.7-3.4-5.8c-1.2-0.5-2.6-0.8-4.4-0.8h-10.8v23.3h4.1v-9.5h6.3
	c1.2,0,2,0.2,2.5,0.4c0.8,0.5,1.2,1.3,1.3,2.5l0.2,3.7c0.1,0.9,0.1,1.5,0.2,1.8l0.3,0.8l0.1,0.3h4.5v-1.4 M2459.8,337.5
	c0-4.8,1.8-9.1,5.1-12.4c3.3-3.2,7.7-5.1,12.4-5.1c4.6,0,9,1.8,12.2,5.1c3.3,3.3,5.1,7.6,5.1,12.4c0,9.5-7.8,17.3-17.3,17.3
	c-4.6,0-9.1-1.8-12.4-5C2461.6,346.5,2459.7,342.1,2459.8,337.5 M2477.2,358.3c5.6,0,10.8-2.2,14.8-6.1c3.9-3.9,6.1-9.2,6.1-14.8
	c0-5.5-2.2-10.9-6.1-14.8c-3.9-3.9-9.2-6.1-14.8-6.1c-11.6,0-20.9,9.4-20.9,20.9c0,0,0,0,0,0c0,5.6,2.1,10.8,6.1,14.8
	C2466.3,356.1,2471.6,358.3,2477.2,358.3"/>
</svg>
