<svg id="Layer_1" data-name="Layer 1" xmlns="http://www.w3.org/2000/svg" width="195" height="100" viewBox="0 0 357.3213 117.6024"><defs><style>.cls-1{fill:#171a21;}</style></defs><title>Steam-01 [Converted]</title><path class="cls-1" d="M75.7462,5.1988c-30.61,0-55.6861,23.8181-58.0675,54.0845L48.9094,72.3139a16.2737,16.2737,0,0,1,9.2824-2.8929q.4653,0,.9182.0252L73,49.1289v-.2852A21.9744,21.9744,0,1,1,94.9735,71.0226c-.1677,0-.3313-.0042-.499-.0084l-19.81,14.259c.0126.2642.021.5283.021.7882a16.4813,16.4813,0,0,1-32.6646,3.2828l-22.3381-9.32a58.3713,58.3713,0,0,0,56.0634,42.7771c32.1824,0,58.2687-26.3295,58.2687-58.8012C134.0149,31.5241,107.9286,5.1988,75.7462,5.1988ZM54.015,94.42l-7.1567-2.9851a12.3148,12.3148,0,0,0,22.56-.6037,12.5219,12.5219,0,0,0,.021-9.5592,12.3044,12.3044,0,0,0-15.81-6.9136L61.025,77.444A9.2238,9.2238,0,0,1,65.93,89.4684,9.0814,9.0814,0,0,1,54.015,94.42Zm55.422-45.5756A14.6432,14.6432,0,1,0,94.7964,63.6189,14.73,14.73,0,0,0,109.437,48.8442ZM83.82,48.819A11,11,0,1,1,94.8174,59.9168,11.0493,11.0493,0,0,1,83.82,48.819Z" transform="translate(-17.6787 -5.1988)"/><polygon class="cls-1" points="357.321 83.801 347.321 83.801 347.321 58.061 337.746 83.801 331.864 83.801 322.321 58.061 322.321 83.801 311.321 83.801 311.321 39.326 323.692 39.326 334.592 69.558 345.526 39.326 357.321 39.326 357.321 83.801"/><path class="cls-1" d="M302.8938,45h-7.6671L279.0558,89h9.9126l2.5681-6.8444H305.66L308.2275,89h10.8371Zm-8.9874,29.3333,5.3619-15.5454L304.63,74.3333Z" transform="translate(-17.6787 -5.1988)"/><polygon class="cls-1" points="252.321 83.801 223.321 83.801 223.321 39.801 252.321 39.801 252.321 47.801 232.321 47.801 232.321 57.801 249.321 57.801 249.321 65.801 232.321 65.801 232.321 75.801 252.321 75.801 252.321 83.801"/><polygon class="cls-1" points="211.321 46.801 200.321 46.801 200.321 83.801 191.321 83.801 191.321 46.801 179.321 46.801 179.321 39.801 211.321 39.801 211.321 46.801"/><path class="cls-1" d="M188.0638,76.16c0,9.1152-8.0428,13.2707-16.0857,13.4047-8.0429,0-13.4049-1.8767-16.0858-5.8981l5.3619-5.496c2.681,2.4129,5.362,3.7534,10.7239,3.7534s8.0429-1.8767,8.0429-5.4961c0-3.351-2.681-4.8256-5.3619-5.3618l-5.362-.67Q157.2328,68.7874,157.2327,57.93a12.8349,12.8349,0,0,1,4.0215-9.7854c2.681-2.4129,6.7025-3.6194,10.7239-3.6194,6.7024,0,10.7239,1.7426,14.7453,5.0938l-5.3618,5.496a14.37,14.37,0,0,0-9.3835-3.0831c-4.0214.2681-6.7024,1.7427-6.7024,5.63,0,3.0831,2.681,4.5576,5.362,4.8258L176,63.2915C182.702,64.0957,188.0638,68.6534,188.0638,76.16Z" transform="translate(-17.6787 -5.1988)"/></svg>