<svg id="Layer_1" data-name="Layer 1" xmlns="http://www.w3.org/2000/svg" width="195" height="100" viewBox="0 0 2500.0005 759.8262"><defs><style>.cls-1{fill:#fff;}</style></defs><title>xbox</title><path class="cls-1" d="M2440.1262,613.8632l-145.59-197.5954-145.43,197.5955h-59.9138L2264.22,375.1271,2104.37,158.12h59.9137l130.2525,176.9852L2424.7884,158.12h59.8738l-159.73,216.9676L2500,613.8633Zm-1134.4864-.08L1130.4121,375.0871l159.85-216.9676h-59.9137L1100.0558,335.1446,969.8832,158.12h-59.754l159.77,216.9676L894.7114,613.7834h59.9937l145.4306-197.5156,145.55,197.5156Z" transform="translate(0.0004 -0.1071)"/><path class="cls-1" d="M1638.76,392.3422a127.6938,127.6938,0,0,0-29.877-19.0126,103.2515,103.2515,0,0,0,54.8012-91.2686c0-29.158-10.7446-123.9814-148.1467-123.9814H1330.4841V354.5567h-61.6312c-7.9885,10.4249-26.1623,35.4689-33.0723,45.7341h94.7035V613.7834l185.0934.04c100.2556,0,162.526-50.8867,162.526-133.0484,0-35.8683-13.54-66.3445-39.3434-88.4326M1381.65,205.6511h133.9271c36.2279,0,96.94,9.027,96.94,72.4157,0,47.931-35.349,76.49-96.94,76.49H1381.65V205.6511Zm133.8872,360.6407H1381.6105V400.4107h133.9271c50.7669,0,111.5194,14.02,111.5194,79.3657,0,75.2516-69.8594,86.5154-111.5194,86.5154m403.2993-418.6772c-128.0158,0-217.4868,97.8991-217.4868,238.0972,0,140.3978,89.4712,238.2169,217.4868,238.2169,127.8958,0,217.1273-97.8191,217.1273-238.2169,0-140.1982-89.2315-238.0972-217.1273-238.0972m0,428.1035c-97.54,0-165.8812-78.1674-165.8812-190.0063s68.3416-189.9665,165.8812-189.9665c97.38,0,165.3219,78.1275,165.3219,189.9665s-67.9422,190.0063-165.3219,190.0063M113.3568,109.35l-.36.32v.04A379.7755,379.7755,0,0,0,77.6482,610.1086a1.6887,1.6887,0,0,0,2.0371.6391,1.5211,1.5211,0,0,0,.4393-1.9572C51.1663,519.24,199.1932,302.192,275.683,211.203a1.9948,1.9948,0,0,0,.5592-1.1184,1.7393,1.7393,0,0,0-.719-1.2382C146.8685,80.7909,112.518,110.0687,112.9973,109.6693m533.4318-.32.36.32v.04a379.8279,379.8279,0,0,1,35.3092,500.3994,1.6744,1.6744,0,0,1-2.0371.6391,1.6178,1.6178,0,0,1-.4394-1.9572C708.58,519.24,560.6726,302.0323,484.2227,211.0033a1.7773,1.7773,0,0,1-.5592-1.0784,1.627,1.627,0,0,1,.7189-1.2782c128.6947-128.0556,162.8056-98.578,162.3662-98.9774M379.8929.1071c76.65,0,139.7188,21.01,197.8751,55.6a1.4343,1.4343,0,0,1,.6391,1.8773,1.4589,1.4589,0,0,1-1.8374.6391c-73.534-15.8971-185.3331,47.6513-195.8779,54.0022a1.2086,1.2086,0,0,1-1.6377,0c-28.04-16.0968-131.3708-70.2588-196.4371-53.6028a1.4121,1.4121,0,0,1-1.1983-2.5563C239.575,21.1168,303.443.1071,379.8929.1071m0,304.6812a2.1464,2.1464,0,0,1,1.1983.5991c113.6763,86.4355,308.2361,300.1278,248.8417,360.5608l.08-.08-.04.08h-.08a379.6526,379.6526,0,0,1-500.12,0l-.08-.08.08.08C70.4984,605.5152,265.0183,391.823,378.5748,305.3874a2.51,2.51,0,0,1,1.3181-.5991" transform="translate(0.0004 -0.1071)"/></svg>