<?xml version="1.0" encoding="UTF-8"?>
<svg xmlns="http://www.w3.org/2000/svg" xmlns:xlink="http://www.w3.org/1999/xlink" width="100px" height="100px" viewBox="0 0 100 100" version="1.1">
<g id="surface1">
<path style=" stroke:none;fill-rule:nonzero;fill:rgb(100%,100%,100%);fill-opacity:1;" d="M 69.179688 48.320312 L 42.792969 30.273438 C 41.972656 29.667969 39.785156 29.667969 39.609375 31.953125 L 39.609375 68.046875 C 39.804688 70.332031 42.03125 70.371094 42.792969 69.726562 L 69.179688 51.679688 C 69.863281 51.269531 70.800781 49.589844 69.179688 48.320312 Z M 43.691406 64.199219 L 43.691406 35.800781 L 64.414062 50 Z M 43.691406 64.199219 "/>
<path style=" stroke:none;fill-rule:nonzero;fill:rgb(100%,100%,100%);fill-opacity:1;" d="M 50 2.148438 C 23.613281 2.148438 2.148438 23.613281 2.148438 50 C 2.148438 76.386719 23.613281 97.851562 50 97.851562 C 76.386719 97.851562 97.851562 76.386719 97.851562 50 C 97.851562 23.613281 76.386719 2.148438 50 2.148438 Z M 50 93.769531 C 25.859375 93.769531 6.230469 74.140625 6.230469 50 C 6.230469 25.859375 25.859375 6.230469 50 6.230469 C 74.140625 6.230469 93.769531 25.859375 93.769531 50 C 93.769531 74.140625 74.140625 93.769531 50 93.769531 Z M 50 93.769531 "/>
</g>
</svg>
