<svg id="Layer_1" data-name="Layer 1" xmlns="http://www.w3.org/2000/svg" width="100" height="80" viewBox="0 0 2494.7999 2023.6"><defs><style>.cls-1{fill:#fff;}</style></defs><title>ps</title><path class="cls-1" d="M352.2,1065.1c-70.7,47.1-47.1,136.7,103.7,179.1,155.5,51.8,325.2,66,490.1,37.7,9.4,0,18.9-4.7,23.6-4.7V1117l-160.2,51.8c-61.3,18.9-122.5,23.6-183.8,9.4-47.1-14.1-37.7-42.4,18.9-66L969.7,999.1V824.8L517.1,980.3a607.9331,607.9331,0,0,0-164.9,84.8ZM1445.6,358.2V815.4c193.2,94.3,344,0,344-245.1,0-249.8-89.5-362.9-348.8-452.4C1304.2,70.7,1162.8,28.3,1021.4,0V1362l329.9,99V315.8c0-51.8,0-89.5,37.7-75.4,51.9,14.1,56.6,65.9,56.6,117.8Zm612.7,598.5c-136.7-47.1-282.8-66-424.2-51.8-75.4,4.7-146.1,23.6-212.1,47.1l-14.1,4.7v183.8l306.3-113.1c61.3-18.9,122.5-23.6,183.8-9.4,47.1,14.1,37.7,42.4-18.9,66l-471.3,174.4v179.1l650.4-240.4c47.1-18.9,89.5-42.4,127.2-80.1,33.1-47.2,19-113.2-127.1-160.3Z" transform="translate(-2.6)"/><path class="cls-1" d="M2.6,1540.9v348.9H57.1V1574.3h50.4s36.6,0,49.2,16.4c10.7,13.9,12.6,39.2,12.6,56.2,0,18.2-1.2,46.4-7.3,56.8-9.3,15.8-24.5,18.9-38.5,18.9H90.2v31h47.9s43.2,1.8,61.8-17.1c22.8-23.1,28.6-54.3,28.6-95.9,0-37.8-13.7-76-41.8-89-23.2-10.7-65.1-10.7-65.1-10.7Zm268.6,348.9h54.5V1540.9H271.2Zm344.2-267.5,99.7,261.2-57.2,140.1h45.2l164.8-401.3H817.4l-71.8,195.6-66.8-195.6Zm293.5,265.4v-33s57.6,2.3,69.6,2.3c26.6,0,39.9-5.7,49.8-16.4,5.9-6.4,11.2-34.9,11.2-45s-1.9-32-5.9-40.9c-4.1-8.8-13.4-17-27.3-18.1-9.9-.9-25.3-2.9-43.2-3.7a69.6211,69.6211,0,0,1-49.8-23.7c-7.9-9.4-18.6-23.7-18.6-67.2,0-43.6,11.3-68,22.6-79.3,11.3-11.4,27.8-16.4,40.5-18.6,14.6-2.5,38.5-2.6,38.5-2.6l76.2,2.2v33s-55.6-2.2-67.6-2.2c-26.6,0-34.6,5.7-44.5,16.4-5.9,6.4-10.5,24-10.5,34,0,10.1,1.2,30.6,5.2,39.5,4,8.8,13.3,17,27.2,18.2,9.9.8,25.3,2.8,43.2,3.6,25.3,1.2,41.9,14.3,49.8,23.8,8,9.5,18.7,29.4,18.7,72.9,0,43.6-11.4,74.7-22.6,86.1-11.3,11.3-27.8,16.4-40.5,18.6-14.6,2.5-38.5,2.7-38.5,2.7Zm297.2-313.4h-54.4v256.2s1.3,23.4,2.6,31.6,13.3,27.7,44.5,27.7l56.4-1.1v-32.9s-15.3,1.1-24.5,1.1c-9.4,0-20.7-.6-22.6-16.4a325.6824,325.6824,0,0,1-2-34.6V1655.1h61.5v-32.8h-61.5v-48m525.6,315.5h54.4V1622.3h-54.4Zm0-300.4h54.4v-48.6h-54.4Zm226.6,30.6c37.1,0,65.8,8.3,81.2,20.8,15.6,12.5,34.7,38.9,34.7,115.3s-19.1,102.8-34.7,115.3c-15.4,12.5-44.2,20.8-81.2,20.8-37.2,0-65.8-8.3-81.3-20.8-15.6-12.5-34.6-38.9-34.6-115.3s19.1-102.8,34.6-115.3S1921.1,1620,1958.3,1620Zm-37.4,51.3c-7.5,9.2-16.6,28.6-16.6,84.8,0,56.1,9.1,75.5,16.6,84.7,7.5,9.1,21.2,15.3,39,15.3s31.5-6.2,39.1-15.3c7.5-9.2,16.6-28.6,16.6-84.7,0-56.2-9.1-75.5-16.6-84.8-7.6-9.2-21.3-15.3-39.1-15.3-17.7,0-31.5,6.1-39,15.3m266.2-11.5,53.4-2.3c14,0,30.4,3.8,38.4,13.9,7.4,9.5,12.1,20.9,12.1,39.2v178.9h54.5V1706.1c0-34.7-10.7-54.8-26.7-67.5-22.8-18.1-63.8-16.4-63.8-16.4l-122,2.2v265.1h54Zm-563.8-85.5h-54.5v256.2s1.3,23.4,2.6,31.6c1.4,8.2,13.2,27.7,44.6,27.7l56.4-1.1v-32.9s-15.3,1.1-24.6,1.1-20.6-.6-22.6-16.4a342.6476,342.6476,0,0,1-1.9-34.6V1655.1h61.4v-32.8h-61.4ZM532.4,1710.7c0-18.3-4.7-29.7-12.2-39.2-8-10.1-24.4-13.9-38.4-13.9l-71.8,2.3v-35.4l86.5-2.2s40.9-1.7,63.8,16.4c16,12.7,26.5,32.8,26.5,67.5V1887l-104.4,2.3s-47.3.2-71.1-9.5c-23.2-9.4-35.9-35.4-35.9-71.3,0-34.7,10.6-54.9,26.6-67.5,22.9-18.1,63.8-16.4,63.8-16.4h33.3v30.8H480.4c-14,0-28.4,2.6-36.4,12.7-7.5,9.4-11.5,17.6-11.5,35.9,0,24,4.7,34.7,16,42.9,10,7.3,27.9,8.9,47.8,8.9l36-2.2Zm918.4,0c0-18.3-4.6-29.7-12.1-39.2-8.1-10.1-24.5-13.9-38.4-13.9l-71.8,2.3v-35.4l86.4-2.2s40.9-1.7,63.7,16.4c16,12.7,26.6,32.8,26.6,67.5V1887l-104.4,2.3s-47.3.2-71.1-9.5c-23.2-9.4-35.9-35.4-35.9-71.3,0-34.7,10.7-54.9,26.6-67.5,22.8-18.1,63.8-16.4,63.8-16.4h33.3v30.8h-18.7c-13.9,0-28.4,2.6-36.3,12.7-7.5,9.4-11.5,17.6-11.5,35.9,0,24,4.7,34.7,16,42.9,10,7.3,27.9,8.9,47.9,8.9l35.9-2.2ZM2444.2,1892a53.0694,53.0694,0,0,0,53.2-53v-.2a53.2453,53.2453,0,1,0-53.2,53.2Zm-44.2-53.2a44.3851,44.3851,0,1,1,13,31.3,43.614,43.614,0,0,1-13-31.3" transform="translate(-2.6)"/><path class="cls-1" d="M2470.5,1863.5a3.2758,3.2758,0,0,1-1.7-2.6,22.9732,22.9732,0,0,1-.5-4.5l-.2-7.6c-.1-3.6-.9-6.2-2.2-7.9a11.3138,11.3138,0,0,0-3.5-2.9,14.1076,14.1076,0,0,0,6.8-13.3c0-7-3-11.9-8.7-14.5a26.7214,26.7214,0,0,0-11.2-2h-27.5v59.2H2432v-24.3h16.2a16.6876,16.6876,0,0,1,6.4.9c2.1,1,3.2,3.1,3.4,6.3l.5,9.5a29.2287,29.2287,0,0,0,.4,4.6,12.34,12.34,0,0,0,.8,2.3l.4.7h11.4v-3.5l-1-.4Zm-11.9-38.1c0,3.3-.9,5.5-2.5,6.7-1.9,1.3-4.5,1.9-7.8,1.9h-16.5v-16.7h17.5a13.2436,13.2436,0,0,1,5.7,1c2.5,1.3,3.6,3.6,3.6,7.1" transform="translate(-2.6)"/></svg>